# xmcd
#
# Track frame offsets:
#	150
#	13272
#	36670
#	55562
#	73085
#	97127
#	116397
#	147180
#	183167
#
# Disc length: 3138 seconds
#
# Revision: 0
# Processed by: cddbd v1.5.1PL0 Copyright (c) Steve Scherf et al.
# Submitted via: dBpowerAMP V4.0
#
DISCID=7e0c4009
DTITLE=The Screaming Blue Dogs - The Screaming Blue Dogs
DYEAR=1900
DGENRE=Blues
TTITLE0=Friday Night
TTITLE1=Winners and Losers
TTITLE2=I Don't Like Workin'
TTITLE3=Coming To My Own
TTITLE4=Depression Blues
TTITLE5=Shake It, Don't Break It
TTITLE6=First is the Worst
TTITLE7=When I Think of Her
TTITLE8=Unknown
EXTD=
EXTT0=
EXTT1=
EXTT2=
EXTT3=
EXTT4=
EXTT5=
EXTT6=
EXTT7=
EXTT8=
PLAYORDER=
